<svg xmlns="http://www.w3.org/2000/svg" xmlns:v="https://svgstorm.com"
viewBox = "0 0 900 900"
width="50"
height="50">

<g fill="#ffffff" fill-opacity="1.00" stroke="None"><path d="
M 452.00 424.00 
C 447.24 445.41 423.34 449.48 407.25 465.25 C 391.16 481.01 386.00 510.99 400.75 529.25 C 415.51 547.51 446.35 551.65 462.75 535.75 C 479.15 519.85 495.97 513.19 510.70 495.70 C 525.43 478.21 533.98 459.65 541.01 438.01 C 548.04 416.37 548.49 386.09 535.77 366.23 C 523.05 346.36 508.58 335.53 486.68 327.32 C 464.77 319.11 434.31 319.71 414.23 332.23 C 394.15 344.75 385.06 359.60 375.31 380.31 C 365.55 401.01 369.96 430.17 392.30 440.70 C 414.65 451.22 440.14 447.16 452.00 424.00 Z"/>
</g>
</svg>